{
	"asset":{
		"generator":"Khronos glTF Blender I/O v4.4.56",
		"version":"2.0"
	},
	"extensionsUsed":[
		"KHR_materials_clearcoat",
		"KHR_materials_transmission",
		"KHR_materials_sheen"
	],
	"scene":0,
	"scenes":[
		{
			"name":"Scene",
			"nodes":[
				0,
				1
			]
		}
	],
	"nodes":[
		{
			"name":"Curve.001"
		},
		{
			"mesh":0,
			"name":"Circle",
			"rotation":[
				0.6980264782905579,
				-0.15393327176570892,
				-0.07967490702867508,
				0.6947773694992065
			]
		}
	],
	"materials":[
		{
			"doubleSided":true,
			"emissiveFactor":[
				0.5,
				0.10882798582315445,
				0.010295024141669273
			],
			"extensions":{
				"KHR_materials_clearcoat":{
					"clearcoatFactor":0.699999988079071,
					"clearcoatRoughnessFactor":0.20000000298023224
				},
				"KHR_materials_transmission":{
					"transmissionFactor":0.5
				},
				"KHR_materials_sheen":{
					"sheenColorFactor":[
						1.0,
						1.0,
						1.0
					],
					"sheenRoughnessFactor":0.20000000298023224
				}
			},
			"name":"Material.001",
			"pbrMetallicRoughness":{
				"baseColorFactor":[
					0.8009926080703735,
					0.3694709539413452,
					0.03632047772407532,
					1
				],
				"metallicFactor":7,
				"roughnessFactor":1.5
			}
		}
	],
	"meshes":[
		{
			"name":"Circle",
			"primitives":[
				{
					"attributes":{
						"POSITION":0,
						"NORMAL":1,
						"TEXCOORD_0":2
					},
					"indices":3,
					"material":0
				}
			]
		}
	],
	"accessors":[
		{
			"bufferView":0,
			"componentType":5126,
			"count":1253,
			"max":[
				1.0001628398895264,
				0.1549377143383026,
				1
			],
			"min":[
				-1,
				-0.1549377143383026,
				-1
			],
			"type":"VEC3"
		},
		{
			"bufferView":1,
			"componentType":5126,
			"count":1253,
			"type":"VEC3"
		},
		{
			"bufferView":2,
			"componentType":5126,
			"count":1253,
			"type":"VEC2"
		},
		{
			"bufferView":3,
			"componentType":5123,
			"count":3738,
			"type":"SCALAR"
		}
	],
	"bufferViews":[
		{
			"buffer":0,
			"byteLength":15036,
			"byteOffset":0,
			"target":34962
		},
		{
			"buffer":0,
			"byteLength":15036,
			"byteOffset":15036,
			"target":34962
		},
		{
			"buffer":0,
			"byteLength":10024,
			"byteOffset":30072,
			"target":34962
		},
		{
			"buffer":0,
			"byteLength":7476,
			"byteOffset":40096,
			"target":34963
		}
	],
	"buffers":[
		{
			"byteLength":47572,
			"uri":"data:application/octet-stream;base64,"
		}
	]
}
